<svg width="219" height="208" viewBox="0 0 219 208" fill="none" xmlns="http://www.w3.org/2000/svg">
<circle cx="109.295" cy="103.805" r="65.5" transform="rotate(-30 109.295 103.805)" stroke="white" stroke-width="10"/>
<path fill-rule="evenodd" clip-rule="evenodd" d="M43.3152 128.673C40.1617 120.336 38.6916 111.66 38.7879 103.08C27.2282 113.719 21.3904 122.549 24.0001 127.069C26.0599 130.637 33.0766 130.989 43.3152 128.673ZM163.821 59.0983C170.947 51.3899 174.15 45.1371 172.09 41.5693C169.481 37.0491 158.915 37.69 143.921 42.3814C151.4 46.588 158.179 52.1992 163.821 59.0983Z" fill="#D9D9D9"/>
<mask id="mask0_843_404" style="mask-type:alpha" maskUnits="userSpaceOnUse" x="23" y="38" width="150" height="93">
<path fill-rule="evenodd" clip-rule="evenodd" d="M43.3152 128.673C40.1617 120.336 38.6916 111.66 38.7879 103.08C27.2282 113.719 21.3904 122.549 24.0001 127.069C26.0599 130.637 33.0766 130.989 43.3152 128.673ZM163.821 59.0983C170.947 51.3899 174.15 45.1371 172.09 41.5693C169.481 37.0491 158.915 37.69 143.921 42.3814C151.4 46.588 158.179 52.1992 163.821 59.0983Z" fill="#D9D9D9"/>
</mask>
<g mask="url(#mask0_843_404)">
<g opacity="0.25" filter="url(#filter0_f_843_404)">
<path d="M45.9085 127.177L23.5536 124.885L21.8805 126.369L28.203 134.51L45.9085 127.177Z" fill="black"/>
</g>
<g opacity="0.25" filter="url(#filter1_f_843_404)">
<path d="M160.371 61.0926L169.563 40.5865L171.684 39.8794L175.573 49.4253L160.371 61.0926Z" fill="black"/>
</g>
</g>
<path fill-rule="evenodd" clip-rule="evenodd" d="M171.84 41.1362C172.939 43.0389 172.702 44.6743 169.95 48.6066C167.199 52.5388 162.601 57.323 156.419 62.6862C150.237 68.0493 142.592 73.8863 133.92 79.8638C125.248 85.8414 115.719 91.8425 105.878 97.5244C96.0363 103.206 86.0749 108.458 76.5622 112.979C67.0496 117.501 58.172 121.203 50.4363 123.875C42.7006 126.548 36.2583 128.138 31.4773 128.554C28.4071 128.822 26.0606 128.602 24.4834 127.907L44.8217 163.134C47.3487 162.731 49.9874 162.221 52.7292 161.606C63.4217 159.206 75.4718 155.242 88.1916 149.94C100.911 144.638 114.052 138.103 126.863 130.707C139.673 123.31 151.903 115.198 162.855 106.833C173.806 98.4685 183.264 90.0148 190.689 81.9549C191.683 80.8752 192.639 79.8053 193.555 78.7464L171.84 41.1362Z" fill="white"/>
<mask id="mask1_843_404" style="mask-type:alpha" maskUnits="userSpaceOnUse" x="24" y="41" width="170" height="123">
<path fill-rule="evenodd" clip-rule="evenodd" d="M171.84 41.1362C172.939 43.0389 172.702 44.6743 169.95 48.6066C167.199 52.5388 162.601 57.323 156.419 62.6862C150.237 68.0493 142.592 73.8863 133.92 79.8638C125.248 85.8414 115.719 91.8425 105.878 97.5244C96.0363 103.206 86.0749 108.458 76.5622 112.979C67.0496 117.501 58.172 121.203 50.4363 123.875C42.7006 126.548 36.2583 128.138 31.4773 128.554C28.4071 128.822 26.0606 128.602 24.4834 127.907L44.8217 163.134C47.3487 162.731 49.9874 162.221 52.7292 161.606C63.4217 159.206 75.4718 155.242 88.1916 149.94C100.911 144.638 114.052 138.103 126.863 130.707C139.673 123.31 151.903 115.198 162.855 106.833C173.806 98.4685 183.264 90.0148 190.689 81.9549C191.683 80.8752 192.639 79.8053 193.555 78.7464L171.84 41.1362Z" fill="white"/>
</mask>
<g mask="url(#mask1_843_404)">
<path d="M33.6553 154.016L30.5085 141.395C30.4974 141.351 30.5069 141.308 30.537 141.267C30.5733 141.224 30.6341 141.186 30.7194 141.151C30.8047 141.116 30.8782 141.088 30.9397 141.066C31.0077 141.042 31.1016 141.016 31.2217 140.986C31.3464 140.948 31.4309 140.923 31.4751 140.912L39.1693 138.994C39.801 138.836 40.4231 138.789 41.0357 138.851C41.6468 138.906 42.2175 139.069 42.7479 139.34C43.2782 139.61 43.7446 140.014 44.1469 140.551C44.5492 141.088 44.8441 141.732 45.0315 142.484C45.1701 143.04 45.2306 143.565 45.2129 144.059C45.2015 144.552 45.1294 144.989 44.9965 145.371C44.8684 145.745 44.6818 146.101 44.4369 146.437C44.1982 146.771 43.9375 147.058 43.6547 147.296C43.3782 147.533 43.0615 147.756 42.7045 147.966C42.346 148.169 42.0087 148.337 41.6928 148.47C41.3833 148.6 41.0516 148.723 40.6978 148.838L38.8785 149.292C39.0753 150.296 39.3272 151.415 39.6343 152.646L39.8989 153.708C39.9367 153.94 39.8576 154.08 39.6618 154.129L34.2797 155.471C34.0068 155.076 33.7987 154.591 33.6553 154.016ZM37.3458 146.051L37.753 146.392C38.012 146.328 38.2536 146.247 38.4779 146.151C38.7085 146.053 38.9257 145.929 39.1295 145.777C39.3332 145.626 39.4991 145.457 39.6272 145.271C39.7536 145.078 39.839 144.856 39.8834 144.603C39.9262 144.344 39.9114 144.069 39.8389 143.779C39.7838 143.558 39.7034 143.37 39.5977 143.215C39.4967 143.052 39.3886 142.928 39.2734 142.843C39.1629 142.75 39.0217 142.681 38.8496 142.637C38.6838 142.591 38.5299 142.565 38.3878 142.56C38.2504 142.548 38.0783 142.557 37.8714 142.589C37.6693 142.612 37.5019 142.64 37.3692 142.673C37.2413 142.699 37.0763 142.736 36.8742 142.787C36.6846 142.941 36.8418 144.03 37.3458 146.051Z" fill="url(#paint0_linear_843_404)"/>
<path d="M47.2751 139.524C46.9649 138.509 46.8975 137.91 47.073 137.727C47.1391 137.72 47.2281 137.7 47.3402 137.666L47.639 137.574C47.832 137.515 48.1477 137.412 48.5859 137.264C49.0241 137.117 49.3584 137.008 49.5888 136.937C50.4729 136.667 51.1972 136.486 51.7617 136.396C52.3305 136.297 52.6786 136.333 52.8061 136.505L55.6406 146.177L55.8461 146.114C56.3365 145.937 56.6823 145.821 56.8835 145.767C57.0827 145.706 57.4507 145.607 57.9875 145.47C58.5287 145.325 59.0452 145.177 59.537 145.027C59.9417 144.903 60.2482 144.837 60.4564 144.827C60.669 144.81 60.7971 144.873 60.8409 145.016L61.9373 148.602C61.9249 148.851 60.5708 149.388 57.8749 150.212L51.4124 152.188C51.1964 152.016 51.0151 151.69 50.8685 151.21L50.0576 148.558C49.8197 147.78 49.4738 146.626 49.0199 145.097C48.566 143.568 48.2201 142.414 47.9821 141.636C47.9384 141.493 47.8319 141.178 47.6629 140.692C47.4938 140.206 47.3646 139.816 47.2751 139.524Z" fill="url(#paint1_linear_843_404)"/>
<path d="M65.1175 146.865C64.9332 145.331 64.7797 143.761 64.6569 142.153C64.534 140.546 64.4076 138.617 64.2777 136.366C64.1514 134.107 64.0584 132.547 63.9986 131.687C64.0222 131.537 64.0413 131.445 64.0556 131.411L65.5768 130.796C65.933 130.652 66.4557 130.434 67.145 130.142C67.8343 129.849 68.357 129.631 68.7131 129.487L70.2343 128.872C70.3249 128.836 70.4015 128.808 70.4643 128.79C70.5247 128.766 70.5996 128.742 70.689 128.72C70.7783 128.698 70.8521 128.689 70.9101 128.694C70.9742 128.696 71.0341 128.714 71.0898 128.748C71.1456 128.782 71.1868 128.832 71.2137 128.898L80.7325 140.44C80.7813 140.561 80.769 140.661 80.6955 140.74C80.6305 140.822 80.4773 140.912 80.2358 141.009L79.4028 141.346C79.1613 141.444 78.8034 141.592 78.329 141.79C77.8545 141.989 77.4966 142.137 77.2551 142.235C77.1827 142.264 77.036 142.327 76.8151 142.423C76.6027 142.523 76.4198 142.6 76.2664 142.655C76.1155 142.716 75.9429 142.776 75.7484 142.833C75.5624 142.894 75.4011 142.921 75.2645 142.913C75.1363 142.908 75.0401 142.87 74.9758 142.798L74.7343 142.2C74.552 141.923 74.3342 141.688 74.0809 141.495C73.8275 141.303 73.6163 141.24 73.4473 141.309L70.3326 142.567L70.6373 144.677C70.6294 144.849 70.3206 145.058 69.711 145.304L68.9866 145.597C68.727 145.701 68.3444 145.867 67.8386 146.092C67.3328 146.317 66.9502 146.483 66.6906 146.587L66.4371 146.69C66.3405 146.729 66.1878 146.794 65.9789 146.885C65.7761 146.974 65.6174 147.042 65.5027 147.088C65.4349 147.06 65.3065 146.985 65.1175 146.865ZM69.1808 138.83L69.6062 139.153L70.2038 138.912C70.6867 138.717 71.1164 138.511 71.4929 138.296C71.8729 138.072 72.0373 137.897 71.9861 137.77L68.7109 133.027C68.6023 133.071 68.5373 133.336 68.516 133.822C68.5008 134.305 68.5407 134.83 68.6357 135.395L69.1808 138.83Z" fill="url(#paint2_linear_843_404)"/>
<path d="M91.9636 119.971C91.9226 120.887 91.8206 122.547 91.6575 124.95C91.4978 127.344 91.3986 129.202 91.3598 130.523L93.3458 134.984C93.3611 135.098 93.3542 135.187 93.3251 135.25C93.2987 135.319 93.229 135.378 93.116 135.429C92.557 135.677 91.7269 136.054 90.626 136.559C89.531 137.06 88.6891 137.442 88.1003 137.704C87.7908 137.586 87.5726 137.384 87.4455 137.098C87.411 136.957 87.3597 136.801 87.2915 136.632C87.2233 136.463 87.1293 136.252 87.0095 135.999C86.8896 135.746 86.8138 135.583 86.7821 135.512L86.4961 134.87C85.8632 133.448 84.9965 132.302 83.896 131.431C83.7247 131.286 83.5434 131.135 83.3523 130.978C83.1671 130.818 82.9875 130.663 82.8136 130.512C82.6396 130.362 82.4614 130.209 82.2788 130.055C82.0963 129.902 81.9138 129.748 81.7312 129.594C81.5546 129.437 81.3793 129.284 81.2054 129.133C81.0314 128.982 80.8489 128.829 80.6577 128.671C80.4726 128.511 80.2913 128.361 80.1141 128.219L77.4486 126.337C77.4141 126.26 77.4448 126.161 77.5406 126.04C77.6364 125.919 77.7467 125.83 77.8716 125.775L80.1198 124.774C80.429 124.636 80.8943 124.433 81.5155 124.163C82.1426 123.891 82.6078 123.688 82.9112 123.552C82.9997 123.527 83.1303 123.572 83.3029 123.688C83.4755 123.804 83.6763 123.974 83.9051 124.2C84.1399 124.424 84.3797 124.666 84.6245 124.928C84.8666 125.183 85.1232 125.472 85.3945 125.793C85.6657 126.114 85.9022 126.397 86.104 126.642C86.3117 126.884 86.5191 127.134 86.7262 127.391C86.9392 127.646 87.0775 127.812 87.141 127.891L86.446 121.936L91.4776 119.696C91.5662 119.67 91.6445 119.678 91.7126 119.719C91.7781 119.754 91.8618 119.838 91.9636 119.971Z" fill="url(#paint3_linear_843_404)"/>
<path d="M97.6191 125.167C97.1698 124.389 96.8454 123.625 96.6459 122.876C96.4463 122.127 96.3601 121.444 96.3872 120.826C96.42 120.206 96.5384 119.604 96.7426 119.02C96.9523 118.433 97.2141 117.91 97.5278 117.45C97.8382 116.985 98.2024 116.542 98.6205 116.12C99.0442 115.695 99.46 115.335 99.8681 115.039C100.273 114.738 100.698 114.458 101.144 114.201C101.471 114.013 101.797 113.843 102.124 113.692C102.456 113.538 102.837 113.385 103.269 113.234C103.702 113.074 104.131 112.969 104.554 112.92C104.982 112.868 105.413 112.86 105.847 112.895C106.283 112.922 106.715 113.037 107.141 113.242C107.564 113.441 107.949 113.723 108.294 114.087C108.417 114.234 108.74 114.664 109.264 115.376C109.34 115.559 109.208 115.747 108.87 115.943C108.385 116.223 107.673 116.618 106.736 117.13C105.798 117.641 105.098 118.03 104.636 118.297C104.555 118.313 104.475 118.299 104.397 118.254C104.318 118.209 104.248 118.152 104.185 118.083C104.129 118.011 104.057 117.939 103.971 117.869C103.891 117.795 103.806 117.739 103.716 117.7C103.629 117.653 103.51 117.643 103.36 117.669C103.212 117.687 103.048 117.748 102.868 117.852C102.631 117.988 102.444 118.153 102.307 118.345C102.166 118.531 102.071 118.718 102.021 118.904C101.971 119.091 101.962 119.311 101.995 119.562C102.027 119.814 102.07 120.038 102.122 120.233C102.177 120.419 102.268 120.648 102.396 120.921C102.52 121.188 102.621 121.396 102.7 121.546C102.785 121.692 102.897 121.887 103.037 122.129C103.079 122.203 103.134 122.291 103.202 122.395C103.269 122.499 103.314 122.571 103.337 122.61L103.484 122.864C103.588 123.044 103.677 123.192 103.751 123.307C103.825 123.422 103.927 123.566 104.057 123.739C104.192 123.909 104.32 124.046 104.44 124.15C104.557 124.248 104.7 124.345 104.869 124.443C105.041 124.532 105.214 124.586 105.391 124.604C105.569 124.614 105.772 124.595 106 124.546C106.224 124.492 106.457 124.394 106.7 124.255C107.325 123.893 107.803 123.535 108.131 123.18L107.536 122.148L107.164 122.363L107.173 122.38L106.564 122.731C106.519 122.757 106.439 122.807 106.324 122.881C106.215 122.952 106.123 123.009 106.05 123.051L105.55 122.888L104.202 120.554C104.118 120.408 104.128 120.191 104.233 119.905L104.842 119.553C105.265 119.309 105.782 119.019 106.391 118.682C107.001 118.345 107.467 118.083 107.788 117.898L108.465 117.507C108.792 117.318 109.047 117.175 109.231 117.076C109.42 116.974 109.642 116.884 109.897 116.804C110.149 116.719 110.339 116.703 110.467 116.757C110.894 117.495 111.499 118.582 112.282 120.017C113.065 121.452 113.641 122.487 114.008 123.125C114.018 123.141 114.037 123.168 114.066 123.204C114.091 123.235 114.11 123.261 114.123 123.284L114.23 123.47C114.169 123.806 113.657 124.365 112.695 125.146C111.732 125.927 110.89 126.526 110.169 126.943L109.949 127.07C109.791 127.161 109.563 127.307 109.266 127.509C108.969 127.71 108.742 127.857 108.584 127.948C106.312 129.26 104.222 129.658 102.316 129.142C100.412 128.618 98.8463 127.293 97.6191 125.167Z" fill="url(#paint4_linear_843_404)"/>
<path d="M131.456 114.111C131.404 114.307 131.184 114.531 130.797 114.785C130.415 115.035 129.924 115.311 129.324 115.613C128.724 115.914 128.404 116.076 128.364 116.099C127.981 116.32 127.701 116.474 127.526 116.561L126.68 117.049C126.533 117.081 126.323 116.958 126.05 116.68C125.773 116.396 125.415 115.971 124.976 115.406C124.539 114.831 124.306 114.526 124.278 114.489C123.933 113.944 123.631 113.63 123.372 113.546C123.11 113.457 122.77 113.533 122.353 113.774L121.981 113.988L124.364 118.116C124.392 118.19 124.365 118.28 124.284 118.387C124.203 118.494 124.064 118.612 123.868 118.74C123.68 118.871 123.507 118.982 123.349 119.073C123.201 119.167 122.998 119.284 122.741 119.425C122.484 119.566 122.327 119.652 122.271 119.685L121.053 120.388C120.365 120.785 119.849 121.09 119.506 121.303C119.408 121.315 119.306 121.321 119.201 121.322L111.916 108.704C111.825 108.546 112.005 108.337 112.456 108.076L119.831 103.818C121.13 103.113 122.278 102.856 123.276 103.047C124.279 103.235 125.083 103.853 125.688 104.902C126.476 106.266 126.364 107.661 125.353 109.087C125.653 109.019 125.944 108.998 126.229 109.021C126.513 109.045 126.77 109.1 127 109.185C127.226 109.265 127.455 109.388 127.687 109.555C127.919 109.722 128.12 109.888 128.29 110.053C128.46 110.217 128.643 110.424 128.839 110.672C129.041 110.916 129.207 111.132 129.338 111.32C129.468 111.507 129.625 111.733 129.807 111.996C129.991 112.25 130.138 112.452 130.246 112.6L130.675 113.344C130.744 113.424 130.868 113.522 131.047 113.637C131.232 113.748 131.358 113.837 131.426 113.903C131.491 114.015 131.501 114.085 131.456 114.111ZM119.059 109.045C119.255 109.383 119.402 109.632 119.502 109.793C119.602 109.953 119.757 110.149 119.966 110.382C120.176 110.614 120.369 110.754 120.547 110.802C120.784 110.665 120.992 110.511 121.171 110.34C121.356 110.166 121.515 109.965 121.647 109.738C121.779 109.512 121.839 109.256 121.824 108.971C121.813 108.677 121.717 108.375 121.538 108.065C121.437 107.89 121.318 107.756 121.181 107.662C121.041 107.562 120.889 107.507 120.725 107.497C120.561 107.486 120.407 107.492 120.263 107.516C120.12 107.53 119.96 107.578 119.781 107.658C119.605 107.73 119.467 107.791 119.368 107.841C119.269 107.89 119.151 107.954 119.016 108.032L118.813 108.15C118.751 108.238 118.74 108.349 118.781 108.484C118.826 108.615 118.919 108.802 119.059 109.045Z" fill="url(#paint5_linear_843_404)"/>
<path d="M131.178 105.38L130.562 104.5C130.092 103.716 129.779 102.922 129.621 102.119C129.46 101.31 129.44 100.549 129.561 99.8362C129.687 99.1199 129.924 98.4254 130.272 97.7528C130.616 97.0749 131.04 96.4601 131.544 95.9085C132.053 95.3533 132.627 94.8516 133.267 94.4034C133.619 94.157 134.005 93.9305 134.425 93.7241C134.85 93.5139 135.321 93.3234 135.837 93.1526C136.353 92.9819 136.894 92.8856 137.459 92.8636C138.025 92.8326 138.554 92.8955 139.045 93.0522C140.025 93.3278 140.88 93.7381 141.612 94.2831C142.345 94.819 143.014 95.5189 143.619 96.3829C144.897 98.1742 145.518 99.9012 145.482 101.564L145.466 102.29C145.455 102.933 145.263 103.601 144.888 104.292C144.51 104.978 144.071 105.576 143.569 106.086C143.072 106.601 142.53 107.064 141.943 107.475C141.255 107.956 140.572 108.332 139.894 108.6C139.215 108.868 138.583 109.033 137.998 109.093C137.412 109.153 136.836 109.131 136.27 109.027C135.704 108.922 135.184 108.758 134.709 108.534C134.24 108.307 133.783 108.023 133.338 107.682C132.899 107.338 132.504 106.979 132.154 106.604C131.809 106.225 131.484 105.817 131.178 105.38ZM135.327 97.7537C135.109 97.9068 134.947 98.0956 134.842 98.3202C134.742 98.541 134.687 98.7626 134.675 98.985C134.669 99.2037 134.712 99.4637 134.804 99.765C134.892 100.061 134.987 100.321 135.088 100.544C135.185 100.762 135.327 101.028 135.515 101.342C135.699 101.65 135.846 101.889 135.957 102.058C136.069 102.218 136.214 102.426 136.394 102.682C136.565 102.927 136.738 103.156 136.91 103.369C137.085 103.573 137.289 103.779 137.523 103.989C137.759 104.189 137.99 104.349 138.217 104.469C138.445 104.579 138.69 104.639 138.95 104.647C139.212 104.646 139.458 104.573 139.69 104.427C139.925 104.263 140.106 104.08 140.235 103.878C140.361 103.671 140.444 103.466 140.484 103.263C140.521 103.054 140.511 102.819 140.454 102.556C140.398 102.294 140.326 102.054 140.238 101.838C140.155 101.618 140.027 101.361 139.854 101.069C139.687 100.773 139.537 100.525 139.404 100.324C139.267 100.117 139.092 99.8621 138.88 99.5581C138.723 99.3341 138.569 99.1317 138.419 98.9509C138.274 98.7664 138.103 98.568 137.907 98.3558C137.71 98.1435 137.513 97.9755 137.315 97.8518C137.114 97.7228 136.905 97.6183 136.69 97.5383C136.472 97.453 136.245 97.4293 136.009 97.4672C135.778 97.5014 135.551 97.5969 135.327 97.7537Z" fill="url(#paint6_linear_843_404)"/>
<path d="M148.815 96.3283C146.864 93.7882 145.403 91.8973 144.433 90.6558L144.361 90.5634C144.333 90.5275 144.23 90.4059 144.051 90.1984C143.868 89.9858 143.717 89.8026 143.597 89.6487C143.116 89.033 142.895 88.6441 142.933 88.4818C142.959 88.4618 142.999 88.4343 143.054 88.3993C143.11 88.3644 143.15 88.3369 143.176 88.3169C144.006 87.6024 144.99 86.8003 146.129 85.9105L147.176 85.0928C147.221 85.0659 147.289 85.0417 147.379 85.0204C147.471 84.99 147.53 84.9647 147.556 84.9447C147.757 85.192 148.106 85.6175 148.602 86.2211C149.104 86.8207 149.534 87.3443 149.891 87.7917C150.254 88.2352 150.604 88.6769 150.939 89.117L153.284 92.1182C153.432 92.3081 153.558 92.458 153.66 92.5679C153.763 92.6779 153.894 92.7984 154.054 92.9294C154.219 93.0563 154.383 93.1228 154.544 93.1287C154.707 93.1255 154.866 93.0638 155.019 92.9435C155.235 92.7752 155.339 92.5491 155.332 92.2654C155.321 91.9765 155.222 91.7114 155.033 91.4703L152.833 88.6538C152.559 88.3141 152.139 87.7708 151.572 87.0241C151.01 86.2733 150.562 85.6941 150.227 85.2866L149.794 84.7325C149.75 84.6761 149.679 84.5954 149.58 84.4906C149.478 84.3806 149.402 84.2948 149.354 84.2333L149.066 83.8639C148.989 83.7339 149 83.6099 149.098 83.4921C150.083 82.7225 151.568 81.5784 153.554 80.0598L153.65 80.1829L153.989 79.9184C154.802 81.0432 155.775 82.3315 156.909 83.7834L158.256 85.5072C158.437 85.738 158.708 86.096 159.071 86.5812C159.433 87.0663 159.704 87.4243 159.885 87.6551C160.406 88.3221 160.762 88.9942 160.952 89.6716C161.143 90.349 161.188 90.9784 161.089 91.5599C160.99 92.1414 160.775 92.7226 160.444 93.3034C160.113 93.8843 159.728 94.4076 159.291 94.8733C158.853 95.3391 158.347 95.7964 157.773 96.2454C157.219 96.6782 156.67 97.0492 156.126 97.3581C155.592 97.6682 155 97.9202 154.35 98.114C153.696 98.3027 153.069 98.3835 152.469 98.3562C151.87 98.329 151.25 98.1485 150.609 97.8147C149.968 97.4809 149.37 96.9854 148.815 96.3283Z" fill="url(#paint7_linear_843_404)"/>
<path d="M166.456 88.7685L163.445 85.5403C162.334 84.3683 160.272 82.0807 157.259 78.6773L156.713 78.0916C156.615 77.9869 156.576 77.9072 156.597 77.8526L161.511 73.2705C161.558 73.2261 161.822 73.3182 162.302 73.5469C162.787 73.7711 163.399 74.0734 164.136 74.4539C164.874 74.8251 165.386 75.0779 165.671 75.2122L169.109 76.8938L166.525 74.1227C166.303 73.8846 165.901 73.4445 165.32 72.8024C164.74 72.151 164.28 71.649 163.943 71.2963C163.818 71.163 164.137 70.7412 164.899 70.0307C165.137 69.8087 165.467 69.5094 165.891 69.1326C166.314 68.7558 166.573 68.523 166.668 68.4342L167.211 67.9281C167.287 67.857 167.339 67.8358 167.365 67.8644C168.628 69.1614 170.41 71.0431 172.709 73.5095L177.332 78.4662C177.414 78.621 177.319 78.825 177.048 79.0781L176.862 79.2513C176.614 79.4822 176.255 79.8266 175.783 80.2846C175.311 80.7425 174.951 81.087 174.703 81.3178L172.603 83.2759C172.514 83.3143 172.097 83.1431 171.35 82.7623C170.544 82.3472 169.37 81.7558 167.826 80.9879C166.282 80.22 165.419 79.7914 165.238 79.7021C165.5 79.9831 165.889 80.4043 166.403 80.9658C166.918 81.5273 167.306 81.9486 167.568 82.2295C167.764 82.439 168.061 82.7488 168.462 83.1589C168.862 83.5691 169.16 83.8789 169.355 84.0884L170.194 84.9883C170.399 85.2073 170.405 85.4056 170.215 85.5832L166.93 88.6469L166.456 88.7685Z" fill="url(#paint8_linear_843_404)"/>
<path d="M169.803 66.4077C169.752 66.358 169.734 66.2869 169.751 66.1945C169.768 66.093 169.821 65.9769 169.911 65.8464C169.996 65.7114 170.086 65.5809 170.18 65.455C170.275 65.329 170.394 65.1865 170.539 65.0274C170.688 64.8637 170.812 64.7303 170.912 64.6273C171.011 64.5242 171.127 64.4094 171.258 64.2828C171.389 64.147 171.466 64.0674 171.489 64.044L172.248 63.2572C172.398 63.1026 172.601 62.8827 172.858 62.5973C173.12 62.3073 173.315 62.0967 173.441 61.9656C175.599 59.7317 177.525 58.5056 179.22 58.2872L179.689 58.2514C179.841 58.2441 180.025 58.2501 180.242 58.2694C180.454 58.2841 180.749 58.3388 181.129 58.4335C181.508 58.5189 181.892 58.6411 182.281 58.8001C182.671 58.959 183.11 59.1977 183.599 59.5161C184.088 59.8344 184.553 60.2062 184.993 60.6313C185.677 61.2916 186.226 62.0026 186.64 62.7643C187.053 63.5259 187.32 64.281 187.439 65.0294C187.562 65.7732 187.571 66.5189 187.464 67.2666C187.357 68.0052 187.137 68.7066 186.803 69.3708C186.465 70.0305 186.033 70.632 185.509 71.1753L185.292 71.4001C185.097 71.6014 184.803 71.8966 184.409 72.2857C184.015 72.6747 183.721 72.9699 183.527 73.1713C182.392 74.3468 181.384 75.4279 180.503 76.4148C180.17 76.3101 179.91 76.1673 179.722 75.9864L169.803 66.4077ZM181.857 70.0649C182.128 69.7839 182.342 69.5016 182.498 69.2181C182.649 68.9299 182.748 68.6589 182.794 68.4048C182.841 68.1508 182.841 67.8883 182.795 67.6175C182.748 67.3467 182.673 67.097 182.567 66.8687C182.467 66.6356 182.327 66.3963 182.147 66.1508C181.968 65.8961 181.789 65.669 181.611 65.4696C181.427 65.2656 181.216 65.0482 180.978 64.8176L180.542 64.397C179.68 63.5649 178.881 63.123 178.143 63.0714C177.401 63.0153 176.606 63.4021 175.76 64.2318C175.789 64.305 175.823 64.4103 175.862 64.5478C175.901 64.6852 175.935 64.7905 175.964 64.8637L176.302 65.1893C176.372 65.2571 176.552 65.4358 176.843 65.7254C179.922 68.8164 181.593 70.2629 181.857 70.0649Z" fill="url(#paint9_linear_843_404)"/>
<rect opacity="0.45" x="162.58" y="47.0602" width="11" height="49" transform="rotate(-30 162.58 47.0602)" fill="url(#paint10_linear_843_404)"/>
<rect opacity="0.45" width="11" height="49" transform="matrix(-0.866025 0.5 0.5 0.866025 33.5419 121.56)" fill="url(#paint11_linear_843_404)"/>
</g>
<defs>
<filter id="filter0_f_843_404" x="17.8805" y="120.885" width="32.0281" height="17.6246" filterUnits="userSpaceOnUse" color-interpolation-filters="sRGB">
<feFlood flood-opacity="0" result="BackgroundImageFix"/>
<feBlend mode="normal" in="SourceGraphic" in2="BackgroundImageFix" result="shape"/>
<feGaussianBlur stdDeviation="2" result="effect1_foregroundBlur_843_404"/>
</filter>
<filter id="filter1_f_843_404" x="156.371" y="35.8794" width="23.2028" height="29.2132" filterUnits="userSpaceOnUse" color-interpolation-filters="sRGB">
<feFlood flood-opacity="0" result="BackgroundImageFix"/>
<feBlend mode="normal" in="SourceGraphic" in2="BackgroundImageFix" result="shape"/>
<feGaussianBlur stdDeviation="2" result="effect1_foregroundBlur_843_404"/>
</filter>
<linearGradient id="paint0_linear_843_404" x1="188.338" y1="65.6749" x2="38.0827" y2="152.425" gradientUnits="userSpaceOnUse">
<stop stop-opacity="0.5"/>
<stop offset="0.0773576" stop-color="#3D3D3D"/>
<stop offset="0.922073" stop-color="#3D3D3D"/>
<stop offset="1" stop-opacity="0.5"/>
</linearGradient>
<linearGradient id="paint1_linear_843_404" x1="188.338" y1="65.6749" x2="38.0827" y2="152.425" gradientUnits="userSpaceOnUse">
<stop stop-opacity="0.5"/>
<stop offset="0.0773576" stop-color="#3D3D3D"/>
<stop offset="0.922073" stop-color="#3D3D3D"/>
<stop offset="1" stop-opacity="0.5"/>
</linearGradient>
<linearGradient id="paint2_linear_843_404" x1="188.338" y1="65.6749" x2="38.0827" y2="152.425" gradientUnits="userSpaceOnUse">
<stop stop-opacity="0.5"/>
<stop offset="0.0773576" stop-color="#3D3D3D"/>
<stop offset="0.922073" stop-color="#3D3D3D"/>
<stop offset="1" stop-opacity="0.5"/>
</linearGradient>
<linearGradient id="paint3_linear_843_404" x1="188.338" y1="65.6749" x2="38.0827" y2="152.425" gradientUnits="userSpaceOnUse">
<stop stop-opacity="0.5"/>
<stop offset="0.0773576" stop-color="#3D3D3D"/>
<stop offset="0.922073" stop-color="#3D3D3D"/>
<stop offset="1" stop-opacity="0.5"/>
</linearGradient>
<linearGradient id="paint4_linear_843_404" x1="188.338" y1="65.6749" x2="38.0827" y2="152.425" gradientUnits="userSpaceOnUse">
<stop stop-opacity="0.5"/>
<stop offset="0.0773576" stop-color="#3D3D3D"/>
<stop offset="0.922073" stop-color="#3D3D3D"/>
<stop offset="1" stop-opacity="0.5"/>
</linearGradient>
<linearGradient id="paint5_linear_843_404" x1="188.338" y1="65.6749" x2="38.0827" y2="152.425" gradientUnits="userSpaceOnUse">
<stop stop-opacity="0.5"/>
<stop offset="0.0773576" stop-color="#3D3D3D"/>
<stop offset="0.922073" stop-color="#3D3D3D"/>
<stop offset="1" stop-opacity="0.5"/>
</linearGradient>
<linearGradient id="paint6_linear_843_404" x1="188.338" y1="65.6749" x2="38.0827" y2="152.425" gradientUnits="userSpaceOnUse">
<stop stop-opacity="0.5"/>
<stop offset="0.0773576" stop-color="#3D3D3D"/>
<stop offset="0.922073" stop-color="#3D3D3D"/>
<stop offset="1" stop-opacity="0.5"/>
</linearGradient>
<linearGradient id="paint7_linear_843_404" x1="188.338" y1="65.6749" x2="38.0827" y2="152.425" gradientUnits="userSpaceOnUse">
<stop stop-opacity="0.5"/>
<stop offset="0.0773576" stop-color="#3D3D3D"/>
<stop offset="0.922073" stop-color="#3D3D3D"/>
<stop offset="1" stop-opacity="0.5"/>
</linearGradient>
<linearGradient id="paint8_linear_843_404" x1="188.338" y1="65.6749" x2="38.0827" y2="152.425" gradientUnits="userSpaceOnUse">
<stop stop-opacity="0.5"/>
<stop offset="0.0773576" stop-color="#3D3D3D"/>
<stop offset="0.922073" stop-color="#3D3D3D"/>
<stop offset="1" stop-opacity="0.5"/>
</linearGradient>
<linearGradient id="paint9_linear_843_404" x1="188.338" y1="65.6749" x2="38.0827" y2="152.425" gradientUnits="userSpaceOnUse">
<stop stop-opacity="0.5"/>
<stop offset="0.0773576" stop-color="#3D3D3D"/>
<stop offset="0.922073" stop-color="#3D3D3D"/>
<stop offset="1" stop-opacity="0.5"/>
</linearGradient>
<linearGradient id="paint10_linear_843_404" x1="173.58" y1="67.0602" x2="162.58" y2="67.0602" gradientUnits="userSpaceOnUse">
<stop/>
<stop offset="1" stop-opacity="0"/>
</linearGradient>
<linearGradient id="paint11_linear_843_404" x1="11" y1="20" x2="-2.92711e-07" y2="20" gradientUnits="userSpaceOnUse">
<stop/>
<stop offset="1" stop-opacity="0"/>
</linearGradient>
</defs>
</svg>
